#!OML:ASF H:\BabyWalks\Project 1\Capture day 1\Session 1\baby.ASF
:FULLY-SPECIFIED
:DEGREES
325
root 10.1943 17.9322 -14.7588 9.93915 32.3904 -2.23053
lowerback 22.7042 2.7185 5.04892
upperback 3.81893 5.05884 2.45869
thorax -8.23978 2.33902 -1.65328
lowerneck -6.32633 -2.08062 7.27915
upperneck -1.09232 -3.19549 -8.99793
head 0.49142 -1.72317 -4.3535
rclavicle -6.59965e-014 -2.38542e-014
rhumerus -45.4599 14.8587 -81.7896
rradius 60.3014
rwrist 1.35833
rhand -21.1645 -18.8948
rfingers 7.12502
rthumb 5.2155 -48.8106
lclavicle -6.59965e-014 -2.38542e-014
lhumerus -67.7985 -12.7266 96.0383
lradius 51.0208
lwrist -6.67026
lhand 9.98443 12.1743
lfingers 7.12502
lthumb 35.1116 38.7042
rfemur -13.0094 6.57312 28.0849
rtibia 24.1265
rfoot -18.5117 -2.71671
rtoes 7.82271
lfemur -34.2767 -0.10493 -9.88445
ltibia 55.5637
lfoot -19.855 -14.3939
ltoes -13.0554
326
root 10.286 17.9484 -14.6259 9.86801 32.0272 -2.27833
lowerback 22.686 2.85931 5.11392
upperback 3.78993 5.24192 2.32661
thorax -8.23245 2.42144 -1.88416
lowerneck -6.3673 -2.10754 7.21497
upperneck -0.953616 -3.2228 -8.90868
head 0.543578 -1.73713 -4.31178
rclavicle -1.1291e-013 0
rhumerus -45.4607 15.4991 -82.0368
rradius 63.0589
rwrist 0.697387
rhand -21.7073 -18.8569
rfingers 7.12502
rthumb 4.6914 -48.7849
lclavicle -1.1291e-013 0
lhumerus -68.9033 -13.0176 96.327
lradius 51.6556
lwrist -5.94502
lhand 10.7633 12.2971
lfingers 7.12502
lthumb 35.85 38.6504
rfemur -11.8492 6.91276 28.0945
rtibia 23.0544
rfoot -18.1991 -2.61244
rtoes 7.69581
lfemur -34.731 -0.937652 -9.95419
ltibia 53.5463
lfoot -20.2314 -14.0938
ltoes -12.7722
327
root 10.3778 17.9639 -14.4908 9.80571 31.6711 -2.34077
lowerback 22.6369 2.99859 5.17204
upperback 3.75481 5.42015 2.19914
thorax -8.21562 2.50219 -2.10265
lowerneck -6.40275 -2.135 7.13868
upperneck -0.807576 -3.24958 -8.80469
head 0.597559 -1.75049 -4.26249
rclavicle 2.70347e-014 6.04305e-014
rhumerus -45.4881 16.0958 -82.2376
rradius 65.8077
rwrist 0.199535
rhand -22.1151 -18.6988
rfingers 7.12502
rthumb 4.29765 -48.6352
lclavicle 2.70347e-014 6.04305e-014
lhumerus -69.934 -13.2786 96.5318
lradius 52.3317
lwrist -5.1468
lhand 11.4603 12.4514
lfingers 7.12502
lthumb 36.5101 38.6409
rfemur -10.689 7.22295 28.1158
rtibia 21.9494
rfoot -17.8412 -2.46491
rtoes 7.56537
lfemur -35.1395 -1.77371 -9.97212
ltibia 51.4458
lfoot -20.5773 -13.8558
ltoes -12.5769
328
root 10.4697 17.9778 -14.3537 9.74876 31.3149 -2.43102
lowerback 22.5584 3.13918 5.22572
upperback 3.71121 5.5984 2.08005
thorax -8.19267 2.58342 -2.30734
lowerneck -6.42827 -2.16161 7.05275
upperneck -0.653166 -3.27389 -8.68655
head 0.653028 -1.76223 -4.20628
rclavicle 5.96354e-014 3.18055e-015
rhumerus -45.5439 16.6549 -82.3992
rradius 68.5257
rwrist -0.164593
rhand -22.4179 -18.4366
rfingers 7.12502
rthumb 4.00525 -48.3787
lclavicle 5.96354e-014 3.18055e-015
lhumerus -70.8838 -13.5206 96.6639
lradius 53.0207
lwrist -4.29266
lhand 12.0559 12.637
lfingers 7.12502
lthumb 37.0736 38.6824
rfemur -9.54085 7.50148 28.1606
rtibia 20.8254
rfoot -17.4424 -2.26844
rtoes 7.43535
lfemur -35.5123 -2.58918 -9.93048
ltibia 49.3024
lfoot -20.8791 -13.6546
ltoes -12.4708
329
root 10.5621 17.9904 -14.214 9.69027 30.961 -2.53681
lowerback 22.4502 3.27855 5.27317
upperback 3.66812 5.77226 1.96608
thorax -8.15373 2.66364 -2.49896
lowerneck -6.45735 -2.18358 6.96698
upperneck -0.483933 -3.29179 -8.55947
head 0.714634 -1.77072 -4.1474
rclavicle 7.95139e-014 6.36111e-015
rhumerus -45.6181 17.1809 -82.5274
rradius 71.1837
rwrist -0.434905
rhand -22.6588 -18.0831
rfingers 7.12502
rthumb 3.77263 -48.0294
lclavicle 7.95139e-014 6.36111e-015
lhumerus -71.7455 -13.7287 96.7075
lradius 53.7234
lwrist -3.43462
lhand 12.5623 12.8537
lfingers 7.12502
lthumb 37.5524 38.7733
rfemur -8.39059 7.73893 28.217
rtibia 19.6917
rfoot -17.0182 -2.02042
rtoes 7.2763
lfemur -35.8366 -3.38194 -9.8491
ltibia 47.1601
lfoot -21.1319 -13.452
ltoes -12.4524
330
root 10.6549 18.0012 -14.0721 9.64056 30.6033 -2.6416
lowerback 22.3178 3.41828 5.291
upperback 3.62192 5.93879 1.85648
thorax -8.10836 2.74166 -2.66483
lowerneck -6.47512 -2.19806 6.87639
upperneck -0.304519 -3.29861 -8.42141
head 0.778671 -1.77327 -4.08363
rclavicle -2.66371e-014 3.65764e-014
rhumerus -45.7112 17.6924 -82.6314
rradius 73.7514
rwrist -0.664207
rhand -22.8802 -17.6494
rfingers 7.12502
rthumb 3.55884 -47.5994
lclavicle -2.66371e-014 3.65764e-014
lhumerus -72.5198 -13.8893 96.6582
lradius 54.4426
lwrist -2.60943
lhand 12.9828 13.1025
lfingers 7.12502
lthumb 37.9496 38.9154
rfemur -7.25126 7.92019 28.272
rtibia 18.5655
rfoot -16.5757 -1.72684
rtoes 6.96493
lfemur -36.1224 -4.12875 -9.75479
ltibia 45.0667
lfoot -21.3318 -13.217
ltoes -12.5128
331
root 10.748 18.01 -13.9279 9.59096 30.2353 -2.74947
lowerback 22.1637 3.55808 5.28172
upperback 3.57351 6.09838 1.75047
thorax -8.05687 2.81759 -2.80741
lowerneck -6.46331 -2.20131 6.78817
upperneck -0.13159 -3.28983 -8.2739
head 0.836646 -1.76723 -4.01614
rclavicle -6.59965e-014 -6.67916e-014
rhumerus -45.8258 18.199 -82.7256
rradius 76.2027
rwrist -0.900234
rhand -23.134 -17.1504
rfingers 7.12502
rthumb 3.31371 -47.1044
lclavicle -6.59965e-014 -6.67916e-014
lhumerus -73.2075 -14.0169 96.5322
lradius 55.155
lwrist -1.83562
lhand 13.2936 13.358
lfingers 7.12502
lthumb 38.2431 39.0906
rfemur -6.12349 8.05597 28.3271
rtibia 17.4668
rfoot -16.1185 -1.38978
rtoes 6.50678
lfemur -36.3662 -4.806 -9.65739
ltibia 43.0665
lfoot -21.4795 -12.921
ltoes -12.6251
332
root 10.8411 18.0164 -13.7818 9.5415 29.8557 -2.85609
lowerback 21.991 3.69776 5.24041
upperback 3.52609 6.24974 1.64655
thorax -7.99806 2.89103 -2.92526
lowerneck -6.43953 -2.18865 6.71816
upperneck 0.0413078 -3.26078 -8.13163
head 0.893759 -1.75081 -3.9537
rclavicle -1.52667e-013 4.05521e-014
rhumerus -45.9532 18.7037 -82.8154
rradius 78.5102
rwrist -1.18783
rhand -23.467 -16.6183
rfingers 7.12502
rthumb 2.99208 -46.577
lclavicle -1.52667e-013 4.05521e-014
lhumerus -73.8002 -14.1116 96.3274
lradius 55.8541
lwrist -1.14608
lhand 13.5123 13.5917
lfingers 7.12502
lthumb 38.4495 39.2672
rfemur -5.01955 8.1479 28.3781
rtibia 16.4242
rfoot -15.6591 -1.0084
rtoes 5.90793
lfemur -36.571 -5.38684 -9.57857
ltibia 41.2018
lfoot -21.5738 -12.5572
ltoes -12.7794
333
root 10.9347 18.0203 -13.6337 9.48985 29.4644 -2.94967
lowerback 21.8069 3.83247 5.16008
upperback 3.47981 6.38532 1.54128
thorax -7.93679 2.95831 -3.01685
lowerneck -6.39505 -2.15378 6.67112
upperneck 0.210164 -3.20302 -7.99906
head 0.947679 -1.71969 -3.89832
rclavicle 2.10712e-014 -3.49861e-014
rhumerus -46.097 19.213 -82.9147
rradius 80.6518
rwrist -1.55504
rhand -23.923 -16.0609
rfingers 7.12502
rthumb 2.55176 -46.0254
lclavicle 2.10712e-014 -3.49861e-014
lhumerus -74.3025 -14.1714 96.0487
lradius 56.5297
lwrist -0.570913
lhand 13.6396 13.7822
lfingers 7.12502
lthumb 38.5696 39.4241
rfemur -3.94275 8.19063 28.4127
rtibia 15.4647
rfoot -15.2198 -0.580598
rtoes 5.1165
lfemur -36.7291 -5.85776 -9.54769
ltibia 39.5082
lfoot -21.6248 -12.1179
ltoes -12.943
